<?xml version="1.0" encoding="utf-8"?>
<!-- Generator: Adobe Illustrator 24.1.3, SVG Export Plug-In . SVG Version: 6.00 Build 0)  -->
<svg version="1.1" id="Layer_1" xmlns="http://www.w3.org/2000/svg" xmlns:xlink="http://www.w3.org/1999/xlink" x="0px" y="0px"
	 viewBox="0 0 444.4 73.1" style="enable-background:new 0 0 444.4 73.1;" xml:space="preserve">
<style type="text/css">
	.st0{fill:#FFFFFF;}
</style>
<polygon class="st0" points="70.2,2.8 62.2,18.1 50.5,18.1 36.7,46.2 23,18.1 11.7,18.1 3.8,2.8 2.6,3.4 2.6,3.4 36.7,69.7 
	71.5,3.4 "/>
<g>
	<path class="st0" d="M104.1,42.1c0,2.1-0.4,4.1-1.3,5.9c-0.8,1.9-2,3.5-3.5,5c-1.5,1.4-3.2,2.6-5.2,3.4c-4,1.6-8.7,1.6-12.7,0
		c-2-0.8-3.7-2-5.2-3.4c-1.5-1.4-2.6-3.1-3.5-5c-0.8-1.8-1.3-3.8-1.3-5.9c0-2.1,0.4-4.1,1.3-6c0.8-1.9,2-3.6,3.4-5
		c1.5-1.4,3.2-2.5,5.2-3.3c2-0.8,4.1-1.2,6.3-1.2c2.2,0,4.4,0.4,6.3,1.2c2,0.8,3.7,1.9,5.2,3.3c1.4,1.4,2.6,3.1,3.4,5
		C103.7,38,104.1,40,104.1,42.1 M107.1,24c-2.4-2.3-5.3-4.1-8.6-5.3c-3.3-1.3-6.9-1.9-10.6-1.9c-3.8,0-7.4,0.7-10.7,1.9
		C74,20,71.1,21.8,68.7,24c-2.4,2.3-4.3,5-5.7,8c-1.4,3.1-2.1,6.4-2.1,10c0,3.6,0.7,7,2.1,10c1.4,3.1,3.3,5.8,5.7,8
		c2.4,2.3,5.3,4.1,8.6,5.3c3.3,1.3,6.9,1.9,10.7,1.9c3.7,0,7.3-0.7,10.6-1.9c3.3-1.3,6.2-3.1,8.6-5.3c2.4-2.3,4.3-5,5.7-8
		c1.4-3.1,2.1-6.5,2.1-10c0-3.6-0.7-6.9-2.1-10C111.5,29,109.5,26.3,107.1,24"/>
	<path class="st0" d="M154,17.5c-6.2-1.3-12.5-0.9-17.9,1.2c-3.4,1.3-6.3,3.1-8.8,5.3c-2.5,2.3-4.5,5-5.9,8.1
		c-1.4,3.1-2.1,6.6-2.1,10.2c0,3.6,0.7,6.9,2.2,10c1.4,3,3.4,5.7,5.8,7.9c2.4,2.2,5.3,4,8.6,5.2c3.3,1.2,6.8,1.9,10.5,1.9
		c2.5,0,4.9-0.2,7.2-0.7c2.3-0.5,4.5-1.3,6.8-2.4l0.4-0.2V50.7l-1.2,1.2c-1.8,1.9-3.7,3.3-5.9,4.4c-2.1,1-4.5,1.6-7.1,1.6
		c-2.4,0-4.7-0.4-6.7-1.2c-2-0.8-3.7-1.9-5.2-3.3c-1.4-1.4-2.6-3.1-3.4-5c-0.8-1.9-1.2-4.1-1.2-6.4c0-2,0.4-4,1.2-5.9
		c0.8-1.9,1.9-3.6,3.4-5c1.4-1.4,3.1-2.6,5-3.4c1.9-0.8,4-1.3,6.2-1.3c5.3,0,9.9,2,13.7,6l1.2,1.3V20.1l-0.3-0.2
		C158.5,18.8,156.3,18,154,17.5"/>
	<path class="st0" d="M193.2,58.2c-2.4,0-4.6-0.4-6.4-1.3c-1.8-0.9-3.4-2.1-4.6-3.6c-1.2-1.5-2.2-3.3-2.9-5.2c-0.7-1.9-1-4-1-6.1
		c0-2.1,0.3-4.1,1-6c0.7-1.9,1.7-3.6,2.9-5.1c1.3-1.5,2.8-2.7,4.7-3.6c1.8-0.9,4-1.3,6.3-1.3c2.4,0,4.6,0.4,6.5,1.3
		c1.9,0.9,3.5,2,4.8,3.5c1.3,1.5,2.3,3.2,3,5.1c0.7,1.9,1,4,1,6.2c0,2.2-0.3,4.3-1,6.3c-0.7,1.9-1.7,3.6-3,5.1
		c-1.3,1.5-2.9,2.6-4.8,3.5C197.9,57.8,195.7,58.2,193.2,58.2 M208.1,24.8c-1.8-2.3-4-4.1-6.5-5.5c-3-1.7-6.4-2.6-10.2-2.6
		c-3.7,0-7,0.7-10,2.1c-2.9,1.4-5.5,3.2-7.5,5.5c-2.1,2.3-3.7,5-4.8,7.9c-1.1,3-1.7,6.2-1.7,9.4c0,3.4,0.5,6.6,1.6,9.7
		c1.1,3.1,2.7,5.9,4.7,8.2c2.1,2.4,4.6,4.3,7.6,5.7c3,1.4,6.5,2.1,10.4,2.1c3.7,0,7.1-0.9,10-2.5c2.4-1.4,4.6-3.2,6.3-5.3v6.2h10.8
		V18.1h-10.8V24.8z"/>
	<path class="st0" d="M260.3,19.1c-1.3-0.8-2.6-1.4-3.9-1.8c-1.4-0.4-2.8-0.6-4.3-0.6c-3.3,0-6.2,0.8-8.6,2.5
		c-1.9,1.3-3.4,2.9-4.5,4.9v-6h-10.8v47.7H239V42.4c0-1.8,0.1-3.7,0.4-5.6c0.2-1.9,0.7-3.6,1.5-5.1c0.7-1.5,1.8-2.7,3.3-3.7
		c1.4-0.9,3.4-1.4,5.7-1.4c1.1,0,2,0.1,2.9,0.4c0.9,0.2,1.7,0.7,2.4,1.4l0.6,0.5l5-9.4L260.3,19.1z"/>
	<path class="st0" d="M286.4,25.8c3.7,0,6.5,1,8.8,3c2.1,1.9,3.4,4.3,4,7.3h-26.1c0.6-2.9,2.1-5.3,4.3-7.2
		C279.9,26.8,282.9,25.8,286.4,25.8 M300.9,49.5c-1.8,2.7-3.7,4.9-5.9,6.4c-2.1,1.5-4.9,2.3-8.4,2.3c-2.1,0-4.1-0.4-5.8-1.2
		c-1.7-0.8-3.3-1.9-4.5-3.3c-1.2-1.3-2.2-2.9-2.9-4.7c-0.6-1.6-0.9-3.2-1-4.9h37.7v-2c0-3.5-0.5-6.8-1.5-9.9c-1-3.1-2.5-5.8-4.4-8.1
		c-2-2.3-4.5-4.1-7.4-5.4c-3-1.3-6.5-2-10.5-2c-4.1,0-7.7,0.7-10.8,1.9c-3.1,1.3-5.7,3.1-7.7,5.4c-2.1,2.3-3.6,5.1-4.7,8.2
		c-1,3.1-1.6,6.5-1.6,10.1c0,3.5,0.6,6.8,1.7,9.8c1.2,3,2.8,5.7,4.9,8c2.1,2.2,4.8,4,7.8,5.3c3.1,1.3,6.6,1.9,10.5,1.9
		c5,0,9.6-1.1,13.7-3.4c4.1-2.3,7.4-5.5,9.8-9.6l0.3-0.6l-9.2-4.9L300.9,49.5z"/>
	<path class="st0" d="M350.7,44.5c0,1.8-0.2,3.5-0.5,5.2c-0.3,1.6-0.9,3-1.6,4.2c-0.8,1.2-1.9,2.1-3.2,2.8c-1.4,0.7-3.2,1.1-5.4,1.1
		c-2.2,0-4-0.4-5.4-1.1c-1.4-0.7-2.5-1.7-3.2-2.9c-0.8-1.2-1.4-2.6-1.7-4.2c-0.3-1.6-0.5-3.4-0.5-5.2V18.1h-10.8v27.3
		c0,3.2,0.4,6.2,1.2,8.9c0.8,2.7,2.1,5,3.9,7c1.8,2,4,3.5,6.8,4.5c2.7,1,6,1.6,9.7,1.6s7-0.5,9.7-1.6c2.7-1.1,5-2.6,6.7-4.5
		c1.7-1.9,3-4.3,3.9-7c0.8-2.7,1.2-5.6,1.2-8.9V18.1h-10.8V44.5z"/>
	<path class="st0" d="M440,29.7c-0.5-2.5-1.4-4.7-2.7-6.6c-1.3-1.9-3.1-3.5-5.3-4.6c-2.2-1.1-5-1.7-8.3-1.7c-3.3,0-6.3,0.8-9.1,2.3
		c-2.5,1.4-4.5,3.2-6.1,5.4c-1.6-2.2-3.4-4.1-5.5-5.4c-2.4-1.5-5.4-2.3-8.7-2.3c-2.8,0-5.4,0.7-7.8,2.2c-1.9,1.1-3.5,2.5-4.8,4v-4.8
		h-10.8v47.7h10.8V42.4c0-1.8,0.1-3.7,0.3-5.6c0.2-1.9,0.6-3.7,1.3-5.4c0.7-1.6,1.7-2.9,3.1-3.9c1.4-1,3.3-1.5,5.6-1.5
		c2,0,3.6,0.5,4.7,1.4c1.1,0.9,2,2.1,2.5,3.5c0.5,1.5,0.9,3.1,1,4.8c0.1,1.7,0.2,3.4,0.2,4.9v25.2h10.8V42.4c0-1.8,0.1-3.7,0.3-5.6
		c0.2-1.9,0.6-3.7,1.3-5.3c0.7-1.6,1.7-2.9,3.1-4c1.3-1,3.2-1.5,5.6-1.5c1.9,0,3.5,0.4,4.6,1.2c1.1,0.8,2,1.8,2.5,3
		c0.6,1.2,1,2.7,1.2,4.2c0.2,1.6,0.3,3.1,0.3,4.5v26.9h10.8V37.4C440.7,34.8,440.5,32.2,440,29.7"/>
	<path class="st0" d="M18.3,2.8L18.3,2.8c0.4,0.9,0.7,1.7,1,2.6c10-2.8,25.4-2.9,35.1,0.2c0.5-0.8,0.7-1.9,1.1-2.8h0.1
		c3.2,2.6,6.6,5.1,9.9,7.7h-1c-3.8-0.1-7.8-0.2-11.7-0.3c0.3-0.9,0.6-1.7,0.9-2.6c-9.4-2.8-24-2.9-33.5-0.1c0.3,1,0.7,1.7,1,2.7H8.5
		C11.7,7.7,15.1,5.4,18.3,2.8"/>
</g>
</svg>
